<?xml version="1.0" encoding="UTF-8"?>
<svg version="1.1" xmlns="http://www.w3.org/2000/svg" width="200" height="200">
<path d="M0 0 C66 0 132 0 200 0 C200 66 200 132 200 200 C134 200 68 200 0 200 C0 134 0 68 0 0 Z " fill="#FDFCFD" transform="translate(0,0)"/>
<path d="M0 0 C0.7425 0.45375 1.485 0.9075 2.25 1.375 C4.9504039 0.72836433 4.9504039 0.72836433 7.25 -0.625 C11.91017665 -2.95508832 18.7092141 -2.36115486 23.609375 -0.94140625 C27.14000233 0.7075883 29.55558266 2.58799368 32.125 5.5 C34.63769302 8.24484401 36.46398028 8.82807937 40.125 9.375 C45.6982793 10.21434929 49.26079673 12.43261836 53.25 16.375 C54.24 17.8909375 54.24 17.8909375 55.25 19.4375 C57.57950207 22.85895617 59.85526279 24.11721856 63.35546875 26.17578125 C68.4940145 29.42842773 69.79265966 33.78298511 71.46484375 39.29296875 C72.49345129 42.02056985 74.03773072 43.51954834 76.25 45.375 C79.04206982 49.56310472 78.63432582 53.30475484 78.80859375 58.24609375 C79.28469024 61.62090164 80.07513775 62.84415007 82.25 65.375 C83.58249935 69.37249805 83.51257566 73.06301222 83.5625 77.25 C83.59150391 78.05308594 83.62050781 78.85617188 83.65039062 79.68359375 C83.69249343 83.61534837 83.50498747 85.90145185 81.609375 89.421875 C78.60194482 91.91146952 77.04589773 91.93168416 73.1875 91.75 C72.14464844 91.71648437 71.10179687 91.68296875 70.02734375 91.6484375 C67.25 91.375 67.25 91.375 64.25 90.375 C64.91 88.065 65.57 85.755 66.25 83.375 C69.55 83.705 72.85 84.035 76.25 84.375 C76.27709444 82.29173869 76.29643873 80.20837559 76.3125 78.125 C76.32990234 76.38476562 76.32990234 76.38476562 76.34765625 74.609375 C76.26782092 71.96522872 76.03643778 69.87673909 75.25 67.375 C74.26 67.375 73.27 67.375 72.25 67.375 C71.92 69.685 71.59 71.995 71.25 74.375 C69.6 74.375 67.95 74.375 66.25 74.375 C66.33772455 72.47833474 66.44591301 70.58261007 66.5625 68.6875 C66.62050781 67.63175781 66.67851562 66.57601562 66.73828125 65.48828125 C67.29207906 62.11899226 68.44320446 60.22858978 70.25 57.375 C70.6304212 52.96211402 70.73386059 51.10079089 68.25 47.375 C65.12709365 47.86078543 62.25419641 48.3736012 59.25 49.375 C58.50740651 51.68529085 57.838562 54.020752 57.25 56.375 C56.92 56.705 56.59 57.035 56.25 57.375 C55.83297878 60.2907691 55.83297878 60.2907691 56.25 63.375 C57.56337396 64.4010734 58.89664105 65.40227325 60.25 66.375 C60.5 69.0625 60.5 69.0625 60.25 71.375 C57.06175432 72.96912284 53.62103338 72.47674735 50.125 72.4375 C49.37089844 72.43298828 48.61679688 72.42847656 47.83984375 72.42382812 C45.97652873 72.41203499 44.11325445 72.39409942 42.25 72.375 C43.125 67.625 43.125 67.625 44.25 65.375 C44.91 65.375 45.57 65.375 46.25 65.375 C46.43175781 63.91126953 46.43175781 63.91126953 46.6171875 62.41796875 C46.78476563 61.14566406 46.95234375 59.87335938 47.125 58.5625 C47.28742188 57.29792969 47.44984375 56.03335938 47.6171875 54.73046875 C48.25 51.375 48.25 51.375 50.25 48.375 C50.91 48.375 51.57 48.375 52.25 48.375 C51.755 46.395 51.755 46.395 51.25 44.375 C47.10906302 44.16529441 47.10906302 44.16529441 43.25 45.375 C42.2090934 47.01642963 41.20495674 48.68212215 40.25 50.375 C38.27 49.88 38.27 49.88 36.25 49.375 C35.92 47.725 35.59 46.075 35.25 44.375 C31.67809477 45.45739553 29.44077758 47.00352365 26.75 49.5 C23.61228342 52.32875105 23.61228342 52.32875105 20.3125 52.75 C19.631875 52.62625 18.95125 52.5025 18.25 52.375 C17.87431942 46.86501815 17.87431942 46.86501815 19.6875 44.5 C22.0301328 41.31401939 21.86565512 38.28250627 22.25 34.375 C22.58 34.045 22.91 33.715 23.25 33.375 C26.52380575 33.76015362 29.74916818 34.28069215 32.98828125 34.890625 C37.41807131 35.54846209 41.85661188 35.6870161 46.328125 35.8046875 C51.01488657 36.01934834 54.19124349 37.0742514 58.25 39.375 C59.24 39.705 60.23 40.035 61.25 40.375 C61.06535634 36.03315798 61.06535634 36.03315798 59.25 32.375 C57.2220021 32.1496669 55.19325126 31.92732815 53.16015625 31.75390625 C51.25 31.375 51.25 31.375 49.25 29.375 C49.146875 28.26125 49.04375 27.1475 48.9375 26 C48.53028359 22.37463087 48.53028359 22.37463087 46.4375 20 C41.58385008 17.52559024 36.63153926 17.54665994 31.25 17.375 C32.64195915 20.1589183 34.40575779 20.35398997 37.25 21.375 C37.25 23.025 37.25 24.675 37.25 26.375 C35.125 27.125 35.125 27.125 32.25 27.375 C28.9375 25.5625 28.9375 25.5625 26.25 23.375 C26.25 22.715 26.25 22.055 26.25 21.375 C25.59 21.375 24.93 21.375 24.25 21.375 C24.25 18.735 24.25 16.095 24.25 13.375 C25.24 13.045 26.23 12.715 27.25 12.375 C23.41661387 8.00635487 23.41661387 8.00635487 18.19140625 6.20703125 C17.01384766 6.19736328 17.01384766 6.19736328 15.8125 6.1875 C14.63880859 6.16623047 14.63880859 6.16623047 13.44140625 6.14453125 C10.95794013 6.23413936 10.95794013 6.23413936 8.25 8.375 C8.36509661 9.79250563 8.49253658 11.20901169 8.625 12.625 C8.72941406 13.80835938 8.72941406 13.80835938 8.8359375 15.015625 C9.28731305 17.587614 9.77627535 19.21413993 11.25 21.375 C13.56975269 22.85977143 13.56975269 22.85977143 16.25 24 C21.07887701 26.20387701 21.07887701 26.20387701 23.25 28.375 C22.92 29.695 22.59 31.015 22.25 32.375 C18.29 33.365 14.33 34.355 10.25 35.375 C9.59 37.685 8.93 39.995 8.25 42.375 C9.735 42.87 9.735 42.87 11.25 43.375 C11.875 45.6875 11.875 45.6875 12.25 48.375 C11.59 49.365 10.93 50.355 10.25 51.375 C9.79605448 53.65412938 9.79605448 53.65412938 9.625 56.0625 C9.55023438 56.87074219 9.47546875 57.67898437 9.3984375 58.51171875 C9.32496094 59.43404297 9.32496094 59.43404297 9.25 60.375 C11.18798521 60.06552329 13.12537426 59.75231166 15.0625 59.4375 C16.14144531 59.26347656 17.22039062 59.08945313 18.33203125 58.91015625 C21.29933356 58.43628079 21.29933356 58.43628079 24.25 57.375 C26.3716468 57.22945167 28.49856706 57.15419588 30.625 57.125 C31.74648437 57.09921875 32.86796875 57.0734375 34.0234375 57.046875 C37.54106057 57.40459938 39.39765975 58.34524477 42.25 60.375 C41.92 62.025 41.59 63.675 41.25 65.375 C37.29 65.375 33.33 65.375 29.25 65.375 C29.270625 66.509375 29.29125 67.64375 29.3125 68.8125 C29.25 72.375 29.25 72.375 28.25 73.375 C26.25041636 73.41580783 24.24954746 73.41754356 22.25 73.375 C22.25 71.725 22.25 70.075 22.25 68.375 C21.54875 68.684375 20.8475 68.99375 20.125 69.3125 C17.16063343 70.40802678 14.37301892 70.93922992 11.25 71.375 C11.1675 72.32375 11.085 73.2725 11 74.25 C10.25 77.375 10.25 77.375 8.625 78.8125 C5.34607373 79.5890878 2.54925133 78.90180353 -0.75 78.375 C-0.73428955 77.49239502 -0.7185791 76.60979004 -0.70239258 75.70043945 C-0.65112002 72.41099114 -0.61358083 69.12197039 -0.58520508 65.83227539 C-0.5701624 64.41130859 -0.54972296 62.99038787 -0.52368164 61.56958008 C-0.48709653 59.52153114 -0.47022903 57.4740985 -0.45703125 55.42578125 C-0.4413208 54.19512939 -0.42561035 52.96447754 -0.40942383 51.6965332 C-0.77925048 48.08972917 -1.52610002 46.21408442 -3.75 43.375 C-6.40070682 42.5940552 -6.40070682 42.5940552 -9.3125 42.625 C-14.64670014 42.42664993 -14.64670014 42.42664993 -16.75 41.375 C-15.86036592 46.470177 -14.99122449 50.24286422 -12.125 54.5625 C-8.56194837 60.43474344 -9.32484237 66.73309303 -9.75 73.375 C-15.91569767 74.69767442 -15.91569767 74.69767442 -18.75 73.375 C-20.375 70.875 -20.375 70.875 -21.75 68.375 C-25.16339 66.668305 -28.9245286 67.06442441 -32.6875 67 C-33.51185547 66.96261719 -34.33621094 66.92523438 -35.18554688 66.88671875 C-37.48025859 66.85316488 -39.51092771 66.86424254 -41.75 67.375 C-43.46479135 69.83856365 -43.46479135 69.83856365 -44.75 72.375 C-47.9375 72.6875 -47.9375 72.6875 -50.75 72.375 C-50.8309313 69.77021117 -50.89045434 67.16793347 -50.9375 64.5625 C-50.96263672 63.82451172 -50.98777344 63.08652344 -51.01367188 62.32617188 C-51.08774226 56.86965368 -51.08774226 56.86965368 -49.37109375 54.35546875 C-47.75 53.375 -47.75 53.375 -45.625 53.5 C-45.00625 53.78875 -44.3875 54.0775 -43.75 54.375 C-43.42 55.365 -43.09 56.355 -42.75 57.375 C-40.44 57.705 -38.13 58.035 -35.75 58.375 C-35.75 55.735 -35.75 53.095 -35.75 50.375 C-33.275 49.88 -33.275 49.88 -30.75 49.375 C-27.75 53.125 -27.75 53.125 -27.75 55.375 C-27.09 55.375 -26.43 55.375 -25.75 55.375 C-25.75 56.035 -25.75 56.695 -25.75 57.375 C-22.78 57.87 -22.78 57.87 -19.75 58.375 C-20.20375 57.7459375 -20.6575 57.116875 -21.125 56.46875 C-23.63973045 51.6810901 -24.256098 46.60820342 -25.2109375 41.32421875 C-26.09929826 36.70037383 -27.13279471 33.36347341 -29.75 29.375 C-29.9375 26.0625 -29.9375 26.0625 -29.75 23.375 C-27.4375 22.6875 -27.4375 22.6875 -24.75 22.375 C-22.55642482 23.89362897 -21.70265628 25.46292405 -20.4375 27.8125 C-18.2517216 31.13164498 -16.29241057 32.57037575 -12.75 34.375 C-9.77343105 34.94278483 -7.85542147 34.77569955 -4.75 34.375 C-1.74658597 32.16195808 -0.11300952 29.81469784 1.25 26.375 C1.52957674 23.00273759 1.52957674 23.00273759 1.4375 19.375 C1.43105469 18.158125 1.42460938 16.94125 1.41796875 15.6875 C1.27548751 11.92753127 1.27548751 11.92753127 0.25 8.375 C-5.14254202 6.57748599 -10.07507891 6.66977007 -15.3125 8.875 C-16.116875 9.37 -16.92125 9.865 -17.75 10.375 C-17.37095792 13.66575996 -17.37095792 13.66575996 -15.75 16.375 C-14.23530552 16.60692865 -12.71245438 16.78715238 -11.1875 16.9375 C-9.94806641 17.06318359 -9.94806641 17.06318359 -8.68359375 17.19140625 C-8.04550781 17.25199219 -7.40742187 17.31257813 -6.75 17.375 C-6.255 19.85 -6.255 19.85 -5.75 22.375 C-9.2726896 24.72345973 -11.18938198 24.96038862 -15.32421875 24.90625 C-19.82913862 23.91966529 -22.67718575 20.64378454 -25.75 17.375 C-26.7834384 16.1309679 -26.7834384 16.1309679 -29.01171875 16.14453125 C-32.23867345 16.41612943 -33.84971493 17.32263623 -36.5625 19.0625 C-37.85607422 19.88041016 -37.85607422 19.88041016 -39.17578125 20.71484375 C-40.02527344 21.26269531 -40.87476563 21.81054688 -41.75 22.375 C-43.24944652 23.29257175 -44.74939224 24.2093286 -46.25 25.125 C-48.40606566 26.4504502 -49.94317559 27.56817559 -51.75 29.375 C-52.39767793 31.94561311 -52.39767793 31.94561311 -52.75 34.375 C-51.46222656 34.29121094 -50.17445312 34.20742188 -48.84765625 34.12109375 C-47.16928773 34.01795379 -45.49090136 33.91510416 -43.8125 33.8125 C-42.53729492 33.72838867 -42.53729492 33.72838867 -41.23632812 33.64257812 C-40.02299805 33.57006836 -40.02299805 33.57006836 -38.78515625 33.49609375 C-38.0362915 33.4489624 -37.28742676 33.40183105 -36.51586914 33.35327148 C-34.75 33.375 -34.75 33.375 -33.75 34.375 C-33.65148829 36.20615883 -33.62027371 38.04119933 -33.625 39.875 C-33.62113281 41.37546875 -33.62113281 41.37546875 -33.6171875 42.90625 C-33.75 45.375 -33.75 45.375 -34.75 46.375 C-37.125 46.625 -37.125 46.625 -39.75 46.375 C-40.17023437 45.88515625 -40.59046875 45.3953125 -41.0234375 44.890625 C-44.25201455 42.05648949 -48.40952966 42.86446764 -52.50390625 42.9375 C-57.18493523 43.56839681 -59.26583045 45.2779604 -62.75 48.375 C-63.41 48.375 -64.07 48.375 -64.75 48.375 C-65.16890218 51.16438212 -65.16890218 51.16438212 -64.75 54.375 C-63.1040349 56.06211423 -61.43762851 57.7295622 -59.75 59.375 C-59.4375 62.1875 -59.4375 62.1875 -59.75 64.375 C-62.70664519 65.8533226 -65.49229737 65.43532783 -68.75 65.375 C-68.60936865 67.66699177 -68.46234057 69.95859186 -68.3125 72.25 C-68.19068359 74.16425781 -68.19068359 74.16425781 -68.06640625 76.1171875 C-67.95793973 79.25800152 -67.95793973 79.25800152 -66.75 81.375 C-64.22266765 82.03055119 -64.22266765 82.03055119 -61.75 82.375 C-61.75 84.355 -61.75 86.335 -61.75 88.375 C-65.44769949 89.17254303 -67.95551907 89.65748211 -71.5625 88.375 C-74.86877018 85.35212441 -75.53539853 81.59109906 -75.95483398 77.25976562 C-76.05226334 75.04442543 -76.07217428 72.84234525 -76.0625 70.625 C-76.07861328 69.87089844 -76.09472656 69.11679688 -76.11132812 68.33984375 C-76.11626585 62.7799692 -76.11626585 62.7799692 -74.234375 60.69921875 C-73.74453125 60.26222656 -73.2546875 59.82523438 -72.75 59.375 C-72.46190579 56.76503912 -72.46190579 56.76503912 -72.6875 53.9375 C-72.89136357 50.0954558 -72.95019968 47.60508038 -70.75 44.375 C-68.65625 42.453125 -68.65625 42.453125 -66.25 40.625 C-65.4559375 40.01140625 -64.661875 39.3978125 -63.84375 38.765625 C-61.75 37.375 -61.75 37.375 -59.75 37.375 C-59.81960937 36.66214844 -59.88921875 35.94929688 -59.9609375 35.21484375 C-60.01507813 34.25707031 -60.06921875 33.29929688 -60.125 32.3125 C-60.19460937 31.37277344 -60.26421875 30.43304688 -60.3359375 29.46484375 C-59.4695612 24.89615273 -57.20656707 22.39993351 -53.75 19.375 C-50.64237986 17.31517941 -47.4060184 15.64234033 -44.0625 14 C-42.78149414 13.34451172 -42.78149414 13.34451172 -41.47460938 12.67578125 C-32.71008728 8.22811332 -32.71008728 8.22811332 -27.5625 8.3125 C-25.6753125 8.3434375 -25.6753125 8.3434375 -23.75 8.375 C-23.6571875 7.2303125 -23.6571875 7.2303125 -23.5625 6.0625 C-22.75 3.375 -22.75 3.375 -20.5625 1.6875 C-14.02851533 -1.36169285 -6.6407649 -3.92408835 0 0 Z " fill="#FE7499" transform="translate(95.75,21.625)"/>
<path d="M0 0 C1.67255859 -0.0009668 1.67255859 -0.0009668 3.37890625 -0.00195312 C4.54035156 0.01802734 5.70179687 0.03800781 6.8984375 0.05859375 C8.03667969 0.05150391 9.17492187 0.04441406 10.34765625 0.03710938 C18.17014523 0.09548616 25.33085856 0.94375942 32.35791016 4.57250977 C36.24745428 6.4478788 39.93765145 5.92517619 43.9609375 4.6328125 C45.82577368 3.93603268 47.68212817 3.2159418 49.52734375 2.46875 C56.34573486 0.05370109 63.32220864 0.31285059 70.4609375 0.30859375 C71.55341797 0.29634766 72.64589844 0.28410156 73.77148438 0.27148438 C75.3405957 0.26858398 75.3405957 0.26858398 76.94140625 0.265625 C77.89297607 0.26151611 78.8445459 0.25740723 79.82495117 0.25317383 C82.2734375 0.49609375 82.2734375 0.49609375 85.2734375 2.49609375 C85.6015625 5.0625 85.6015625 5.0625 85.5234375 8.05859375 C85.50796875 9.04988281 85.4925 10.04117188 85.4765625 11.0625 C85.2734375 13.49609375 85.2734375 13.49609375 84.2734375 14.49609375 C84.08891417 15.8873411 83.95074092 17.28486639 83.8359375 18.68359375 C83.05789014 25.81005655 81.71383189 29.61982346 76.125 34.19921875 C69.57658297 38.78587372 62.3534415 38.32272162 54.6328125 37.06640625 C49.02239059 35.52067776 45.21321351 32.56864844 42.2734375 27.49609375 C42.2734375 26.50609375 42.2734375 25.51609375 42.2734375 24.49609375 C41.6134375 24.49609375 40.9534375 24.49609375 40.2734375 24.49609375 C39.9434375 22.84609375 39.6134375 21.19609375 39.2734375 19.49609375 C38.6134375 19.49609375 37.9534375 19.49609375 37.2734375 19.49609375 C36.6134375 21.80609375 35.9534375 24.11609375 35.2734375 26.49609375 C34.6134375 26.49609375 33.9534375 26.49609375 33.2734375 26.49609375 C33.0671875 27.23859375 32.8609375 27.98109375 32.6484375 28.74609375 C30.27601926 33.49093022 26.57891501 35.03803147 21.7109375 36.74609375 C14.78522457 38.21397125 7.2588689 38.80549349 0.7109375 35.93359375 C-3.35212242 31.87053383 -6.59176179 26.92003177 -6.82421875 21.015625 C-6.81261719 20.12230469 -6.80101562 19.22898437 -6.7890625 18.30859375 C-6.78003906 17.40753906 -6.77101562 16.50648437 -6.76171875 15.578125 C-6.75011719 14.89105469 -6.73851562 14.20398438 -6.7265625 13.49609375 C-7.7165625 13.49609375 -8.7065625 13.49609375 -9.7265625 13.49609375 C-9.83540369 12.08115824 -9.91253867 10.66376432 -9.9765625 9.24609375 C-10.02296875 8.4571875 -10.069375 7.66828125 -10.1171875 6.85546875 C-9.18541147 1.22754153 -5.14394609 -0.00948763 0 0 Z " fill="#0C5B6D" transform="translate(61.7265625,99.50390625)"/>
<path d="M0 0 C0.89009766 -0.02449219 1.78019531 -0.04898438 2.69726562 -0.07421875 C8.43234337 -0.09972688 11.95479839 0.34319585 16.1875 4.375 C16.7734375 6.734375 16.7734375 6.734375 16.5625 9.125 C16.50835937 9.92421875 16.45421875 10.7234375 16.3984375 11.546875 C16.32882813 12.15015625 16.25921875 12.7534375 16.1875 13.375 C15.5275 13.375 14.8675 13.375 14.1875 13.375 C13.960625 13.973125 13.73375 14.57125 13.5 15.1875 C11.51083162 18.50278063 8.56008822 19.68870589 5.1875 21.375 C0.79970177 21.87687235 -3.79799703 22.38225149 -7.8359375 20.36328125 C-10.45339458 18.23739538 -11.7429379 16.58368631 -12.8125 13.375 C-12.95548244 11.52447724 -13.03284671 9.66830149 -13.0625 7.8125 C-13.08828125 6.84183594 -13.1140625 5.87117188 -13.140625 4.87109375 C-13.03234375 4.04738281 -12.9240625 3.22367187 -12.8125 2.375 C-8.57972818 -0.44684788 -4.97781205 0.00711624 0 0 Z " fill="#F6F9F9" transform="translate(74.8125,108.625)"/>
<path d="M0 0 C0.81146484 -0.020625 1.62292969 -0.04125 2.45898438 -0.0625 C5.94013164 -0.08534592 8.43168853 -0.0479907 11.609375 1.453125 C13.536176 3.83572839 13.50590693 5.21657052 13.375 8.25 C13.35050781 9.11625 13.32601562 9.9825 13.30078125 10.875 C13.0625 13.25 13.0625 13.25 12.0625 16.25 C11.4025 16.25 10.7425 16.25 10.0625 16.25 C9.7325 17.24 9.4025 18.23 9.0625 19.25 C4.92211893 21.9412477 0.83222764 21.75125217 -3.9375 21.25 C-8.13952357 20.30472932 -11.14877191 18.92041887 -14.4375 16.125 C-16.51163187 12.14958058 -16.79510618 8.64841585 -15.9375 4.25 C-11.66115714 -0.46872316 -5.89199578 0.03726163 0 0 Z " fill="#F7FAFA" transform="translate(124.9375,108.75)"/>
<path d="M0 0 C0.9590625 -0.00773438 1.918125 -0.01546875 2.90625 -0.0234375 C5.5 0.375 5.5 0.375 7.31640625 1.62109375 C9.54742765 4.92712876 9.08524373 8.5605879 8.5 12.375 C7.125 14.9375 7.125 14.9375 4.5 16.375 C-3.78617278 17.54130255 -3.78617278 17.54130255 -7.28515625 15.16015625 C-8.89328167 12.79709093 -8.90036624 11.21601861 -8.875 8.375 C-8.88273438 7.50875 -8.89046875 6.6425 -8.8984375 5.75 C-8.5 3.375 -8.5 3.375 -7.3203125 1.5859375 C-4.81161703 -0.08293717 -2.99257745 -0.02413369 0 0 Z " fill="#1F6878" transform="translate(163.5,153.625)"/>
<path d="M0 0 C10.05859375 -0.09765625 10.05859375 -0.09765625 13 0 C15.33544276 2.33544276 15.52180316 6.84067704 16 10 C15.53488372 14.46511628 15.53488372 14.46511628 14 16 C9.33154772 16.14426614 4.67134047 16.04208415 0 16 C0 10.72 0 5.44 0 0 Z " fill="#0C5B6D" transform="translate(36,154)"/>
<path d="M0 0 C0 5.28 0 10.56 0 16 C-0.99 16 -1.98 16 -3 16 C-3 14.68 -3 13.36 -3 12 C-6.3 12 -9.6 12 -13 12 C-13 13.32 -13 14.64 -13 16 C-13.99 16 -14.98 16 -16 16 C-16.10841951 14.08458862 -16.18578079 12.16740227 -16.25 10.25 C-16.29640625 9.18265625 -16.3428125 8.1153125 -16.390625 7.015625 C-16 4 -16 4 -14.375 1.625 C-9.97542369 -1.38523642 -5.1659379 -0.224606 0 0 Z " fill="#156172" transform="translate(70,154)"/>
<path d="M0 0 C3.6815625 -0.0309375 3.6815625 -0.0309375 7.4375 -0.0625 C8.21150146 -0.071604 8.98550293 -0.08070801 9.78295898 -0.09008789 C11.52221717 -0.09724913 13.26145304 -0.05024702 15 0 C16 1 16 1 16.25 4.3125 C15.99337817 8.09767206 15.56295176 9.33025858 13 12 C13.99 13.32 14.98 14.64 16 16 C11.24518354 15.42365861 8.02951788 13.44931479 4 11 C4 10.01 4 9.02 4 8 C6.64 7.67 9.28 7.34 12 7 C12.33 5.68 12.66 4.36 13 3 C9.7 3 6.4 3 3 3 C3 7.29 3 11.58 3 16 C2.01 16 1.02 16 0 16 C0 10.72 0 5.44 0 0 Z " fill="#115F70" transform="translate(99,154)"/>
<path d="M0 0 C1.27617188 0.02320313 2.55234375 0.04640625 3.8671875 0.0703125 C5.78917969 0.09738281 5.78917969 0.09738281 7.75 0.125 C9.23113281 0.15980469 9.23113281 0.15980469 10.7421875 0.1953125 C10.7421875 1.1853125 10.7421875 2.1753125 10.7421875 3.1953125 C6.4521875 3.1953125 2.1621875 3.1953125 -2.2578125 3.1953125 C-2.2578125 6.4953125 -2.2578125 9.7953125 -2.2578125 13.1953125 C1.0421875 13.1953125 4.3421875 13.1953125 7.7421875 13.1953125 C7.7421875 11.8753125 7.7421875 10.5553125 7.7421875 9.1953125 C5.4321875 9.1953125 3.1221875 9.1953125 0.7421875 9.1953125 C0.7421875 8.5353125 0.7421875 7.8753125 0.7421875 7.1953125 C4.0421875 7.1953125 7.3421875 7.1953125 10.7421875 7.1953125 C10.7421875 10.1653125 10.7421875 13.1353125 10.7421875 16.1953125 C8.45077464 16.24915771 6.15900562 16.28803337 3.8671875 16.3203125 C2.59101562 16.34351563 1.31484375 16.36671875 0 16.390625 C-3.2578125 16.1953125 -3.2578125 16.1953125 -5.2578125 14.1953125 C-5.5234375 11.4453125 -5.5234375 11.4453125 -5.5078125 8.1953125 C-5.51296875 7.1228125 -5.518125 6.0503125 -5.5234375 4.9453125 C-5.12216698 0.79098239 -4.11065322 0.24644204 0 0 Z " fill="#08586A" transform="translate(85.2578125,153.8046875)"/>
<path d="M0 0 C3.49107379 1.16369126 3.85222763 1.88973538 5.6875 4.9375 C6.34298828 6.00291016 6.34298828 6.00291016 7.01171875 7.08984375 C8 9 8 9 8 11 C8.66 11 9.32 11 10 11 C10.268125 10.29875 10.53625 9.5975 10.8125 8.875 C12.0681449 5.8350176 13.50235123 2.9272226 15 0 C15.99 0 16.98 0 18 0 C18 5.28 18 10.56 18 16 C17.01 16 16.02 16 15 16 C14.67 13.69 14.34 11.38 14 9 C12.68 11.31 11.36 13.62 10 16 C5.60841671 14.5361389 5.12052567 12.02168662 3 8 C2.67 10.64 2.34 13.28 2 16 C1.34 16 0.68 16 0 16 C0 10.72 0 5.44 0 0 Z " fill="#256C7C" transform="translate(14,154)"/>
<path d="M0 0 C1.45212891 -0.03867188 1.45212891 -0.03867188 2.93359375 -0.078125 C5.5625 0.25 5.5625 0.25 7.38671875 1.578125 C9.21309059 4.17509227 8.94750235 6.16998124 8.5625 9.25 C7.33203125 10.92578125 7.33203125 10.92578125 5.5625 12.25 C3.30078125 12.54296875 3.30078125 12.54296875 0.875 12.4375 C-0.33736328 12.39689453 -0.33736328 12.39689453 -1.57421875 12.35546875 C-2.18910156 12.32066406 -2.80398437 12.28585938 -3.4375 12.25 C-3.4375 11.26 -3.4375 10.27 -3.4375 9.25 C-0.7975 8.92 1.8425 8.59 4.5625 8.25 C4.5625 6.93 4.5625 5.61 4.5625 4.25 C1.2625 3.92 -2.0375 3.59 -5.4375 3.25 C-5.4375 7.54 -5.4375 11.83 -5.4375 16.25 C-6.0975 16.25 -6.7575 16.25 -7.4375 16.25 C-7.4375 11.3 -7.4375 6.35 -7.4375 1.25 C-4.85741408 -0.04004296 -2.88008426 0.04589776 0 0 Z " fill="#08596B" transform="translate(144.4375,153.75)"/>
<path d="M0 0 C0.8146875 0.00257813 1.629375 0.00515625 2.46875 0.0078125 C3.2834375 0.00523437 4.098125 0.00265625 4.9375 0 C6.96875 0.1328125 6.96875 0.1328125 7.96875 1.1328125 C8.1015625 2.9453125 8.1015625 2.9453125 8.09375 5.1328125 C8.09632813 5.8546875 8.09890625 6.5765625 8.1015625 7.3203125 C7.96875 9.1328125 7.96875 9.1328125 6.96875 10.1328125 C5.47136876 10.2307182 3.96932108 10.26256114 2.46875 10.2578125 C1.6540625 10.26039063 0.839375 10.26296875 0 10.265625 C-2.03125 10.1328125 -2.03125 10.1328125 -3.03125 9.1328125 C-3.1640625 7.3203125 -3.1640625 7.3203125 -3.15625 5.1328125 C-3.15882813 4.4109375 -3.16140625 3.6890625 -3.1640625 2.9453125 C-2.97297164 0.33748427 -2.60354898 0.17023205 0 0 Z " fill="#FAFBFC" transform="translate(161.03125,156.8671875)"/>
<path d="M0 0 C0.99 0 1.98 0 3 0 C3.33 3.96 3.66 7.92 4 12 C7.3 12.33 10.6 12.66 14 13 C14 8.71 14 4.42 14 0 C14.66 0 15.32 0 16 0 C16 5.28 16 10.56 16 16 C5.6875 16.49107143 5.6875 16.49107143 2.375 14.125 C0.18888846 10.74646398 -0.11392624 8.88624678 -0.0625 4.875 C-0.05347656 3.96492187 -0.04445313 3.05484375 -0.03515625 2.1171875 C-0.02355469 1.41851562 -0.01195313 0.71984375 0 0 Z " fill="#0F5D6F" transform="translate(117,154)"/>
<path d="M0 0 C2.97 0 5.94 0 9 0 C8.67 1.32 8.34 2.64 8 4 C6.02 4 4.04 4 2 4 C2 4.66 2 5.32 2 6 C3.670625 5.9690625 3.670625 5.9690625 5.375 5.9375 C9 6 9 6 11 7 C11 7.99 11 8.98 11 10 C7.37 10 3.74 10 0 10 C0 6.7 0 3.4 0 0 Z " fill="#C5D8DC" transform="translate(38,157)"/>
<path d="M0 0 C1.27617188 0.02320313 2.55234375 0.04640625 3.8671875 0.0703125 C5.78917969 0.09738281 5.78917969 0.09738281 7.75 0.125 C9.23113281 0.15980469 9.23113281 0.15980469 10.7421875 0.1953125 C10.7421875 1.1853125 10.7421875 2.1753125 10.7421875 3.1953125 C6.4521875 3.1953125 2.1621875 3.1953125 -2.2578125 3.1953125 C-2.2578125 6.4953125 -2.2578125 9.7953125 -2.2578125 13.1953125 C-3.2478125 13.5253125 -4.2378125 13.8553125 -5.2578125 14.1953125 C-5.31170337 12.23727743 -5.35055467 10.27882341 -5.3828125 8.3203125 C-5.40601562 7.22976562 -5.42921875 6.13921875 -5.453125 5.015625 C-5.16135195 0.80242213 -4.15599711 0.2491605 0 0 Z " fill="#166273" transform="translate(85.2578125,153.8046875)"/>
<path d="M0 0 C3.3 0 6.6 0 10 0 C10.38218767 1.65614657 10.71395102 3.32457024 11 5 C10 6 10 6 8.15234375 6.09765625 C6.1015625 6.06510417 4.05078125 6.03255208 2 6 C1.67 8.31 1.34 10.62 1 13 C0.67 13 0.34 13 0 13 C0 8.71 0 4.42 0 0 Z " fill="#E2EBED" transform="translate(139,157)"/>
<path d="M0 0 C0.33 0 0.66 0 1 0 C1.144375 1.134375 1.28875 2.26875 1.4375 3.4375 C1.61171478 6.80777201 1.61171478 6.80777201 3 8 C4.51928038 8.07179964 6.04167482 8.08392007 7.5625 8.0625 C8.38878906 8.05347656 9.21507812 8.04445312 10.06640625 8.03515625 C10.70449219 8.02355469 11.34257812 8.01195312 12 8 C12.66 5.69 13.32 3.38 14 1 C14.33 1 14.66 1 15 1 C15.08096803 2.45742463 15.13917774 3.91612807 15.1875 5.375 C15.23970703 6.59316406 15.23970703 6.59316406 15.29296875 7.8359375 C15.19628906 8.55007812 15.09960938 9.26421875 15 10 C11.78169935 12.14553377 10.73213493 12.29583868 7 12.3125 C5.700625 12.33763672 5.700625 12.33763672 4.375 12.36328125 C2 12 2 12 0.203125 10.73828125 C-1.95551263 7.6194704 -1.23838547 4.69497485 -1 1 C-0.67 0.67 -0.34 0.34 0 0 Z " fill="#0B5A6D" transform="translate(156,158)"/>
<path d="M0 0 C0.33 0 0.66 0 1 0 C1.36923077 6.4 1.36923077 6.4 -0.5 9.4375 C-0.995 9.953125 -1.49 10.46875 -2 11 C-1.01 12.32 -0.02 13.64 1 15 C-3.75481646 14.42365861 -6.97048212 12.44931479 -11 10 C-11 9.01 -11 8.02 -11 7 C-9.72125 6.9175 -8.4425 6.835 -7.125 6.75 C-4.94491471 6.5315231 -4.94491471 6.5315231 -3 6 C-1.45599341 4.16427296 -1.45599341 4.16427296 -1 2 C-0.67 1.34 -0.34 0.68 0 0 Z " fill="#1A6475" transform="translate(114,155)"/>
<path d="M0 0 C0.99 1.485 0.99 1.485 2 3 C4.43693311 3.36416047 4.43693311 3.36416047 7.125 3.1875 C8.49011719 3.14689453 8.49011719 3.14689453 9.8828125 3.10546875 C10.58148438 3.07066406 11.28015625 3.03585938 12 3 C12 3.33 12 3.66 12 4 C9.03 4 6.06 4 3 4 C3 4.66 3 5.32 3 6 C5.31 6 7.62 6 10 6 C10 7.32 10 8.64 10 10 C6.7 10 3.4 10 0 10 C0 6.7 0 3.4 0 0 Z " fill="#D3E1E4" transform="translate(83,157)"/>
<path d="M0 0 C3.84556115 1.28185372 4.42068027 2.78579777 6.28125 6.2109375 C7 8 7 8 6.75 10.4375 C6.5025 10.953125 6.255 11.46875 6 12 C5.01 10.68 4.02 9.36 3 8 C2.67 10.64 2.34 13.28 2 16 C1.34 16 0.68 16 0 16 C0 10.72 0 5.44 0 0 Z " fill="#0B5A6C" transform="translate(14,154)"/>
<path d="M0 0 C2.05078125 0.03255208 4.1015625 0.06510417 6.15234375 0.09765625 C6.15234375 2.07765625 6.15234375 4.05765625 6.15234375 6.09765625 C2.85234375 6.09765625 -0.44765625 6.09765625 -3.84765625 6.09765625 C-2.77957394 0.14691194 -2.77957394 0.14691194 0 0 Z " fill="#F7F9FA" transform="translate(60.84765625,156.90234375)"/>
<path d="M0 0 C1.98 0 3.96 0 6 0 C6 5.28 6 10.56 6 16 C5.01 16 4.02 16 3 16 C3 11.71 3 7.42 3 3 C2.01 3 1.02 3 0 3 C0 2.01 0 1.02 0 0 Z " fill="#236A7B" transform="translate(181,154)"/>
<path d="M0 0 C0.99 0 1.98 0 3 0 C3 5.28 3 10.56 3 16 C2.34 16 1.68 16 1 16 C1 12.7 1 9.4 1 6 C0.01 6 -0.98 6 -2 6 C-1.34 4.02 -0.68 2.04 0 0 Z " fill="#08586A" transform="translate(29,154)"/>
<path d="M0 0 C2.1640625 -0.29296875 2.1640625 -0.29296875 4.625 -0.1875 C5.44226563 -0.16042969 6.25953125 -0.13335937 7.1015625 -0.10546875 C8.04128906 -0.05326172 8.04128906 -0.05326172 9 0 C9 2.64 9 5.28 9 8 C8.67 8 8.34 8 8 8 C8 6.35 8 4.7 8 3 C4.7 3 1.4 3 -2 3 C-1.34 2.01 -0.68 1.02 0 0 Z " fill="#065769" transform="translate(60,154)"/>
<path d="M0 0 C2.64 0 5.28 0 8 0 C8 0.99 8 1.98 8 3 C5.36 3 2.72 3 0 3 C0 2.01 0 1.02 0 0 Z " fill="#FDFDFD" transform="translate(39,157)"/>
<path d="M0 0 C2.64 0 5.28 0 8 0 C7.67 0.99 7.34 1.98 7 3 C4.69 3 2.38 3 0 3 C0 2.01 0 1.02 0 0 Z " fill="#0A596B" transform="translate(141,163)"/>
<path d="M0 0 C0.66 0.33 1.32 0.66 2 1 C1.01 3.64 0.02 6.28 -1 9 C-1.99 8.01 -2.98 7.02 -4 6 C-2.84826645 3.53199953 -1.95216435 1.95216435 0 0 Z " fill="#2A6F7F" transform="translate(58,154)"/>
<path d="M0 0 C0.33 0 0.66 0 1 0 C1.36666667 5.5 1.36666667 5.5 -0.375 7.875 C-2 9 -2 9 -4 9 C-3.625 7.0625 -3.625 7.0625 -3 5 C-2.34 4.67 -1.68 4.34 -1 4 C-0.34786708 1.97536745 -0.34786708 1.97536745 0 0 Z " fill="#2F7382" transform="translate(152,157)"/>
<path d="M0 0 C0.66 0.33 1.32 0.66 2 1 C1.67 1.99 1.34 2.98 1 4 C0.64456573 6.33006911 0.3086247 8.66327016 0 11 C-0.33 11 -0.66 11 -1 11 C-1.54372951 7.94152152 -2 5.11227195 -2 2 C-1.34 1.34 -0.68 0.68 0 0 Z " fill="#317483" transform="translate(158,154)"/>
</svg>
